<?xml version="1.0" standalone="no"?>
<!DOCTYPE svg PUBLIC "-//W3C//DTD SVG 20010904//EN"
 "http://www.w3.org/TR/2001/REC-SVG-20010904/DTD/svg10.dtd">
<svg version="1.0" xmlns="http://www.w3.org/2000/svg"
 width="325.000000pt" height="325.000000pt" viewBox="0 0 325.000000 325.000000"
 preserveAspectRatio="xMidYMid meet">

<g transform="translate(0.000000,325.000000) scale(0.100000,-0.100000)"
fill="#000000" stroke="none">
<path d="M901 2834 c-147 -39 -247 -99 -351 -211 -105 -113 -166 -247 -185
-410 l-7 -63 230 0 230 0 7 37 c16 86 88 171 164 194 l41 12 0 229 0 228 -37
-1 c-21 0 -62 -7 -92 -15z"/>
<path d="M1100 2622 l0 -228 43 -11 c95 -26 169 -127 169 -231 0 -124 -83
-224 -205 -247 l-37 -7 0 -229 0 -229 25 0 c67 0 155 -60 191 -131 66 -132 0
-299 -137 -344 l-49 -17 0 -230 0 -230 48 7 c300 43 537 252 606 536 20 82 21
243 1 327 -20 83 -72 193 -123 261 l-40 53 39 51 c163 216 185 513 57 760 -59
113 -173 227 -285 285 -84 44 -210 82 -270 82 l-33 0 0 -228z"/>
<path d="M2230 2121 c-163 -52 -291 -188 -335 -356 -74 -284 111 -570 403
-623 l52 -9 0 186 0 187 -31 18 c-40 24 -69 72 -69 117 0 43 35 99 73 117 l27
13 0 185 0 184 -32 -1 c-18 0 -58 -8 -88 -18z"/>
<path d="M2420 1955 l0 -184 29 -15 c31 -17 57 -51 67 -90 l6 -26 184 0 184 0
0 28 c0 46 -28 150 -55 201 -31 62 -121 160 -183 199 -55 35 -158 72 -202 72
l-30 0 0 -185z"/>
<path d="M360 1675 l0 -225 230 0 230 0 0 225 0 225 -230 0 -230 0 0 -225z"/>
<path d="M2420 1316 l0 -184 33 -20 c35 -20 67 -74 67 -111 0 -41 -29 -91 -65
-112 l-35 -21 0 -184 0 -184 29 0 c49 0 153 38 210 76 184 124 267 334 215
543 -9 36 -27 87 -40 112 -31 61 -117 155 -180 195 -59 38 -159 74 -204 74
l-30 0 0 -184z"/>
<path d="M370 1142 c0 -72 35 -195 77 -274 110 -204 307 -338 546 -371 l37 -6
0 228 0 228 -42 12 c-78 24 -168 138 -168 215 0 14 -23 16 -225 16 l-225 0 0
-48z"/>
<path d="M1880 970 c0 -85 40 -191 108 -284 66 -91 194 -166 315 -185 l47 -8
0 186 0 186 -30 17 c-32 18 -70 72 -70 101 0 16 -15 17 -185 17 l-185 0 0 -30z"/>
</g>
</svg>
