<?xml version="1.0" encoding="utf-8"?>
<!-- Generator: Adobe Illustrator 24.0.1, SVG Export Plug-In . SVG Version: 6.00 Build 0)  -->
<svg version="1.1" id="Layer_1" xmlns="http://www.w3.org/2000/svg" xmlns:xlink="http://www.w3.org/1999/xlink" x="0px" y="0px"
	 viewBox="0 0 659.7 2030.4" style="enable-background:new 0 0 659.7 2030.4;" xml:space="preserve">
<style type="text/css">
	.st0{fill:none;stroke:#2C82AA;stroke-width:25;stroke-miterlimit:10;}
	.st1{fill:none;stroke:#2C82AA;stroke-width:35;stroke-miterlimit:10;}
	.st2{fill:none;stroke:#2C82AA;stroke-width:10;stroke-miterlimit:10;}
	.st3{fill:#FF8080;}
</style>
<line class="st0" x1="404.6" y1="1019.2" x2="609.1" y2="1019.2"/>
<line class="st0" x1="29" y1="1019.2" x2="233.6" y2="1019.2"/>
<path class="st1" d="M613.6,38.2c-19.5,80.5-83,238.1-289.9,428.7c-12,11-23.7,22.3-35.2,33.8c-11,11-21.8,22.2-32.3,33.6
	c-10.1,10.9-19.9,22-29.6,33.3c-9.2,10.8-18.2,21.8-26.9,33c-8.3,10.7-16.5,21.5-24.4,32.5c-7.5,10.5-14.9,21.1-22,31.9
	c-6.8,10.3-13.4,20.7-19.8,31.2c-6.1,10-11.9,20.2-17.6,30.4c-5.4,9.7-10.6,19.6-15.6,29.5c-4.7,9.4-9.3,18.9-13.7,28.5
	c-4.1,9.1-8.1,18.2-11.9,27.4c-55.3,133.8-56.4,275.3-1.8,409.7c3.7,9.1,7.6,18.2,11.6,27.2c4.3,9.5,8.8,19,13.4,28.3
	c4.9,9.9,10,19.7,15.3,29.4c5.5,10.2,11.3,20.3,17.3,30.3c6.3,10.5,12.7,20.8,19.4,31.1c7,10.7,14.2,21.3,21.6,31.8
	c7.8,11,15.8,21.8,24,32.4c8.6,11.1,17.4,22.1,26.5,32.9c9.5,11.3,19.2,22.4,29.1,33.3c10.4,11.4,21,22.6,31.8,33.6
	c11.3,11.5,22.9,22.7,34.7,33.7c2.1,1.9,4.1,3.8,6.2,5.7c206.8,190.6,270.4,348.2,289.9,428.7"/>
<path class="st1" d="M32.6,2000.2c19.5-80.5,83-238.1,289.9-428.7c12-11,23.7-22.3,35.2-33.8c11-11,21.8-22.2,32.3-33.6
	c10.1-10.9,19.9-22,29.5-33.3c9.2-10.8,18.2-21.8,26.9-33c8.3-10.7,16.5-21.5,24.4-32.5c7.5-10.5,14.9-21.1,22-31.9
	c6.8-10.3,13.4-20.7,19.8-31.2c6.1-10,11.9-20.2,17.6-30.4c5.4-9.7,10.6-19.6,15.6-29.5c4.7-9.4,9.3-18.9,13.7-28.5
	c4.1-9.1,8.1-18.2,11.9-27.4c55.3-133.8,56.4-275.3,1.8-409.7c-3.7-9.1-7.6-18.2-11.6-27.2c-4.3-9.5-8.8-19-13.4-28.3
	c-4.9-9.9-10-19.7-15.3-29.4c-7.5-13.7-12.1-21.7-17.3-30.3c-6.3-10.5-12.7-20.8-19.4-31.1c-7-10.7-14.2-21.3-21.6-31.8
	c-7.8-11-15.8-21.8-24-32.4c-8.6-11.1-17.4-22.1-26.5-32.9c-9.5-11.3-19.2-22.4-29.1-33.3c-10.4-11.4-21-22.6-31.8-33.6
	c-11.3-11.5-22.9-22.7-34.7-33.7c-2.1-1.9-4.1-3.8-6.2-5.7C115.6,276.3,52.1,118.8,32.6,38.2"/>
<path class="st2" d="M626.6,916.4"/>
<path class="st2" d="M42.2,916.4"/>
<line class="st0" x1="42.2" y1="912.5" x2="597.4" y2="912.5"/>
<line class="st0" x1="71.4" y1="814.7" x2="568.2" y2="814.7"/>
<line class="st0" x1="106.9" y1="716.9" x2="532.7" y2="716.9"/>
<line class="st0" x1="188.3" y1="619" x2="470.6" y2="619"/>
<line class="st0" x1="188.3" y1="328.1" x2="451.3" y2="328.1"/>
<line class="st0" x1="129.9" y1="227.7" x2="519.9" y2="227.7"/>
<line class="st0" x1="71.4" y1="129.9" x2="568.2" y2="129.9"/>
<line class="st0" x1="42.2" y1="1117.1" x2="597.4" y2="1117.1"/>
<line class="st0" x1="71.4" y1="1214.9" x2="568.2" y2="1214.9"/>
<line class="st0" x1="113.2" y1="1311.8" x2="530.2" y2="1311.8"/>
<line class="st0" x1="188.3" y1="1410.6" x2="480.5" y2="1410.6"/>
<line class="st0" x1="188.3" y1="1701.5" x2="451.3" y2="1701.5"/>
<path class="st2" d="M323.1,1606.2"/>
<path class="st2" d="M323.1,1704"/>
<line class="st0" x1="129.9" y1="1801.9" x2="509.8" y2="1801.9"/>
<line class="st0" x1="71.4" y1="1899.7" x2="568.2" y2="1899.7"/>
<path class="st2" d="M323.1,1997.5"/>
<circle class="st3" cx="324.9" cy="1019.2" r="43.8"/>
</svg>
